<?xml version="1.0" encoding="utf-8"?>
<!-- Generator: Adobe Illustrator 16.0.0, SVG Export Plug-In . SVG Version: 6.00 Build 0)  -->
<!DOCTYPE svg PUBLIC "-//W3C//DTD SVG 1.1//EN" "http://www.w3.org/Graphics/SVG/1.1/DTD/svg11.dtd">
<svg version="1.1" id="Layer_1" xmlns="http://www.w3.org/2000/svg" xmlns:xlink="http://www.w3.org/1999/xlink" x="0px" y="0px"
	 width="234.25px" height="143.75px" viewBox="-51.5 -38.125 234.25 143.75" enable-background="new -51.5 -38.125 234.25 143.75"
	 xml:space="preserve">
<path fill="#E5CB98" d="M-25.096,35.735c0,2.247-1.827,4.065-4.073,4.065c-2.241,0-4.063-1.818-4.063-4.065
	c0-2.246,1.822-4.065,4.063-4.065C-26.922,31.67-25.096,33.49-25.096,35.735z"/>
<path fill="#E5CB98" d="M163.697,35.573c0,2.247-1.82,4.065-4.068,4.065c-2.241,0-4.062-1.818-4.062-4.065
	c0-2.246,1.82-4.064,4.062-4.064C161.877,31.509,163.697,33.327,163.697,35.573z"/>
<g>
	<path fill="#E5CB98" d="M-22.335,101.403v0.876h-0.924h-1.824h-0.542h-0.189h-5.854v-0.876c0-0.487,0.291-0.747,0.872-0.776
		c0.052-0.002,0.239-0.006,0.561-0.009c0.321-0.004,0.752-0.009,1.29-0.016c0.539-0.005,1.026-0.014,1.463-0.021l-12.084-12.347
		c-0.165-0.166-0.311-0.304-0.44-0.418c-0.132-0.116-0.282-0.217-0.45-0.297c-0.169-0.08-0.371-0.139-0.605-0.175
		c-0.235-0.037-0.528-0.057-0.879-0.056h-2v13.242c0.521,0.021,1,0.038,1.435,0.052c0.435,0.015,0.759,0.025,0.973,0.031
		c0.214,0.005,0.353,0.011,0.417,0.016c0.581,0.026,0.872,0.286,0.872,0.773v0.876h-3.697h-2.242h-3.704v-0.876
		c0-0.487,0.291-0.747,0.872-0.773c0.063-0.005,0.202-0.011,0.417-0.016c0.215-0.006,0.54-0.017,0.976-0.031
		c0.436-0.014,0.915-0.03,1.439-0.054V72.882c-0.523-0.021-1.003-0.039-1.439-0.054c-0.436-0.013-0.761-0.024-0.976-0.028
		c-0.214-0.008-0.353-0.011-0.417-0.015c-0.582-0.03-0.872-0.287-0.872-0.775v-0.875h3.704h2.236h3.703v0.875
		c0,0.488-0.291,0.745-0.872,0.775c-0.063,0.004-0.203,0.007-0.417,0.015c-0.214,0.005-0.539,0.016-0.973,0.028
		c-0.435,0.015-0.913,0.032-1.435,0.054v12.649h1.846c0.278,0,0.52-0.013,0.726-0.033c0.204-0.023,0.392-0.066,0.561-0.132
		c0.169-0.067,0.328-0.149,0.472-0.252c0.146-0.104,0.3-0.236,0.461-0.397l11.524-11.848c-0.419-0.007-0.887-0.013-1.402-0.021
		c-0.515-0.006-0.924-0.011-1.225-0.015c-0.303-0.005-0.479-0.006-0.53-0.007c-0.582-0.03-0.873-0.288-0.873-0.776v-0.875h5.643
		h0.401h3.079v0.875c0,0.488-0.291,0.746-0.872,0.776c-0.063,0.001-0.151,0.006-0.266,0.01c-0.116,0.005-0.302,0.011-0.562,0.02
		c-0.26,0.009-0.532,0.021-0.82,0.028l-11.921,12.25c-0.279,0.294-0.524,0.521-0.737,0.683c-0.212,0.16-0.45,0.291-0.714,0.396
		c0.307,0.088,0.581,0.223,0.824,0.406c0.241,0.184,0.487,0.422,0.737,0.714l12.688,13.232c0.301,0.013,0.584,0.023,0.848,0.032
		c0.265,0.008,0.456,0.016,0.576,0.021c0.119,0.003,0.209,0.007,0.271,0.009C-22.625,100.656-22.335,100.916-22.335,101.403z"/>
	<path fill="#E5CB98" d="M-4.656,72.842c-0.215,0.006-0.54,0.018-0.975,0.029c-0.435,0.017-0.915,0.033-1.439,0.055v27.604
		c0.523,0.021,1.003,0.04,1.439,0.054c0.436,0.015,0.761,0.022,0.975,0.031c0.214,0.005,0.353,0.011,0.418,0.013
		c0.581,0.029,0.872,0.289,0.872,0.774v0.878h-3.703h-2.264h-3.702v-0.878c0-0.485,0.291-0.745,0.871-0.774
		c0.064-0.002,0.204-0.008,0.417-0.013c0.214-0.009,0.54-0.017,0.976-0.032c0.436-0.013,0.915-0.031,1.438-0.053V72.926
		c-0.523-0.021-1.002-0.039-1.438-0.055c-0.436-0.012-0.762-0.022-0.976-0.029c-0.214-0.005-0.354-0.01-0.418-0.014
		c-0.58-0.027-0.871-0.287-0.871-0.775v-0.876h3.702h2.264h3.703v0.876c0,0.488-0.291,0.748-0.872,0.775
		C-4.301,72.833-4.44,72.838-4.656,72.842z"/>
	<path fill="#E5CB98" d="M30.918,71.177v6.454H29.85c-0.596,0-0.912-0.355-0.947-1.067c-0.004-0.077-0.062-1.235-0.172-3.474h-9.055
		v27.439c0.523,0.023,1.003,0.04,1.439,0.054c0.436,0.015,0.761,0.025,0.975,0.031c0.214,0.005,0.354,0.011,0.417,0.013
		c0.582,0.029,0.873,0.289,0.873,0.776v0.876h-3.704h-2.24h-3.704v-0.876c0-0.487,0.291-0.747,0.872-0.776
		c0.064-0.002,0.204-0.008,0.417-0.013c0.213-0.009,0.539-0.017,0.975-0.031c0.436-0.014,0.915-0.032,1.438-0.054V73.09H8.335
		c-0.101,2.015-0.158,3.172-0.172,3.474c-0.036,0.712-0.352,1.067-0.948,1.067H6.147v-6.454h0.298H7.08h22.906h0.614H30.918z"/>
	<path fill="#E5CB98" d="M64.472,98.146c-0.645,0.688-1.348,1.307-2.111,1.857c-0.763,0.549-1.592,1.019-2.494,1.406
		c-0.903,0.39-1.892,0.69-2.968,0.901c-1.079,0.213-2.262,0.319-3.55,0.319c-2.153,0-4.127-0.379-5.922-1.133
		c-1.796-0.754-3.334-1.825-4.616-3.208c-1.283-1.386-2.283-3.06-3-5.022c-0.718-1.963-1.078-4.147-1.078-6.551
		c0-2.357,0.37-4.513,1.11-6.461c0.74-1.948,1.78-3.622,3.121-5.021c1.34-1.399,2.946-2.484,4.813-3.253
		c1.868-0.768,3.931-1.155,6.187-1.155c2.909,0,6.221,0.744,9.932,2.229v7.015h-1.068c-0.597,0-0.912-0.354-0.947-1.066
		c-0.017-0.343-0.095-1.928-0.235-4.75c-2.289-0.995-4.849-1.491-7.681-1.491c-1.89,0-3.626,0.326-5.209,0.977
		c-1.583,0.652-2.946,1.583-4.088,2.793c-1.143,1.207-2.033,2.675-2.67,4.395c-0.637,1.722-0.956,3.652-0.956,5.792
		c0,2.198,0.315,4.161,0.945,5.89c0.63,1.73,1.502,3.191,2.616,4.384c1.113,1.195,2.428,2.111,3.945,2.747
		c1.517,0.64,3.162,0.958,4.935,0.958c1.113,0,2.106-0.073,2.979-0.22c0.872-0.146,1.674-0.365,2.406-0.66
		c0.734-0.294,1.416-0.651,2.044-1.076c0.631-0.426,1.254-0.924,1.868-1.495c0.074-0.059,0.144-0.104,0.209-0.142
		c0.066-0.037,0.143-0.057,0.229-0.057c0.147,0,0.272,0.053,0.375,0.155L64.472,98.146z"/>
	<path fill="#E5CB98" d="M103.922,72.843c-0.215,0.006-0.541,0.017-0.976,0.031c-0.436,0.014-0.915,0.03-1.438,0.052v27.604
		c0.522,0.023,1.003,0.04,1.438,0.054c0.438,0.015,0.762,0.025,0.976,0.031c0.215,0.005,0.352,0.011,0.417,0.016
		c0.581,0.026,0.872,0.286,0.872,0.773v0.876h-3.703h-2.264h-3.702v-0.876c0-0.487,0.291-0.747,0.871-0.773
		c0.063-0.005,0.204-0.011,0.419-0.016c0.212-0.006,0.539-0.017,0.974-0.031c0.435-0.014,0.915-0.03,1.438-0.054V87.377H79.771
		v13.154c0.522,0.021,1.001,0.038,1.436,0.052c0.435,0.015,0.76,0.025,0.974,0.031c0.215,0.005,0.354,0.011,0.418,0.016
		c0.581,0.026,0.872,0.286,0.872,0.773v0.876h-3.699h-2.264h-3.703v-0.876c0-0.487,0.291-0.747,0.872-0.773
		c0.065-0.005,0.205-0.011,0.417-0.016c0.214-0.006,0.539-0.017,0.975-0.031c0.436-0.014,0.917-0.03,1.438-0.054V72.926
		c-0.521-0.021-1.003-0.038-1.438-0.052c-0.437-0.015-0.761-0.025-0.975-0.031c-0.214-0.005-0.352-0.011-0.417-0.015
		c-0.581-0.027-0.872-0.287-0.872-0.775v-0.875h3.703h2.259h3.704v0.875c0,0.488-0.291,0.748-0.872,0.775
		c-0.063,0.004-0.203,0.01-0.418,0.015c-0.214,0.006-0.539,0.017-0.974,0.031c-0.434,0.014-0.913,0.03-1.436,0.052v12.758h19.474
		V72.926c-0.523-0.021-1.004-0.038-1.438-0.052c-0.435-0.015-0.76-0.025-0.974-0.031c-0.215-0.005-0.355-0.011-0.419-0.015
		c-0.58-0.027-0.871-0.287-0.871-0.775v-0.875h3.702h2.264h3.703v0.875c0,0.488-0.291,0.748-0.872,0.775
		C104.277,72.833,104.138,72.838,103.922,72.843z"/>
	<path fill="#E5CB98" d="M137.941,71.179v1.867v4.572h-1.07c-0.596,0-0.91-0.354-0.946-1.063c-0.021-0.405-0.078-1.575-0.174-3.509
		h-14.187v12.573h12.376v1.823h-12.376v12.968h14.187c0.018-0.377,0.043-0.889,0.075-1.533c0.032-0.646,0.057-1.115,0.068-1.409
		c0.017-0.292,0.026-0.48,0.03-0.564c0.036-0.711,0.351-1.064,0.946-1.064h1.07v4.571v1.869h-18.64H115.6v-0.878
		c0-0.485,0.29-0.745,0.871-0.774c0.064-0.002,0.204-0.008,0.417-0.013c0.214-0.009,0.54-0.017,0.976-0.031
		c0.436-0.014,0.916-0.032,1.438-0.054V72.926c-0.522-0.021-1.003-0.039-1.438-0.052c-0.436-0.017-0.762-0.026-0.976-0.032
		c-0.213-0.005-0.353-0.01-0.417-0.014c-0.581-0.027-0.871-0.287-0.871-0.775v-0.876h3.702L137.941,71.179z"/>
	<path fill="#E5CB98" d="M180.515,71.179v0.875c0,0.488-0.292,0.748-0.872,0.775c-0.063,0.004-0.203,0.009-0.416,0.015
		c-0.216,0.006-0.54,0.017-0.975,0.031c-0.436,0.013-0.916,0.03-1.438,0.052v29.354h-1.076c-0.34,0-0.609-0.148-0.814-0.441
		l-20.221-26.99c0.045,0.439,0.065,0.857,0.065,1.254v24.428c0.525,0.023,1.013,0.04,1.463,0.054
		c0.45,0.015,0.791,0.022,1.023,0.031c0.232,0.005,0.378,0.011,0.441,0.013c0.581,0.029,0.872,0.289,0.872,0.774v0.878h-3.8h-1.955
		h-3.703v-0.878c0-0.485,0.29-0.745,0.872-0.774c0.064-0.002,0.204-0.008,0.417-0.013c0.216-0.009,0.54-0.017,0.976-0.032
		c0.436-0.013,0.917-0.031,1.438-0.053V72.926c-0.521-0.021-1.003-0.039-1.438-0.055c-0.436-0.012-0.76-0.022-0.976-0.029
		c-0.214-0.005-0.353-0.01-0.417-0.014c-0.582-0.027-0.872-0.287-0.872-0.775v-0.876h3.703h1.099
		c0.205,0.002,0.366,0.028,0.483,0.078c0.118,0.052,0.244,0.167,0.373,0.342l20.134,26.945c-0.045-0.438-0.065-0.863-0.065-1.274
		V72.926c-0.524-0.021-1.013-0.039-1.461-0.052c-0.452-0.015-0.793-0.025-1.025-0.031s-0.378-0.011-0.442-0.015
		c-0.58-0.027-0.871-0.287-0.871-0.775v-0.876h3.8h1.978L180.515,71.179z"/>
</g>
<g>
	<path fill="#E5CB98" d="M106.797,28.903c0.244,0,0.463,0.087,0.648,0.257c0.177,0.178,0.271,0.384,0.271,0.626
		c0,0.251-0.095,0.466-0.271,0.646c-0.186,0.182-0.404,0.271-0.648,0.271h-2.341v9.921c0,0.241-0.096,0.447-0.267,0.625
		c-0.177,0.172-0.383,0.258-0.637,0.258c-0.237,0-0.446-0.086-0.628-0.258c-0.171-0.179-0.261-0.384-0.261-0.625v-9.921h-2.357
		c-0.234,0-0.449-0.089-0.625-0.271c-0.19-0.181-0.267-0.395-0.267-0.646c0-0.242,0.076-0.448,0.267-0.626
		c0.176-0.169,0.391-0.257,0.625-0.257H106.797z"/>
	<path fill="#E5CB98" d="M118.267,28.903c0.246,0,0.46,0.087,0.634,0.257c0.181,0.178,0.262,0.384,0.262,0.626v10.839
		c0,0.241-0.081,0.447-0.262,0.625c-0.174,0.172-0.388,0.258-0.634,0.258c-0.239,0-0.458-0.086-0.641-0.258
		c-0.174-0.179-0.263-0.384-0.263-0.625v-4.536h-5.225v4.536c0,0.241-0.088,0.447-0.272,0.625c-0.182,0.172-0.382,0.258-0.631,0.258
		c-0.236,0-0.441-0.086-0.622-0.258c-0.183-0.179-0.28-0.384-0.28-0.625V29.787c0-0.242,0.098-0.448,0.28-0.626
		c0.181-0.169,0.386-0.257,0.622-0.257c0.249,0,0.449,0.087,0.631,0.257c0.185,0.178,0.272,0.384,0.272,0.626v4.538h5.225v-4.538
		c0-0.242,0.089-0.448,0.263-0.626C117.809,28.991,118.027,28.903,118.267,28.903z"/>
	<path fill="#E5CB98" d="M130.361,39.978c0.184,0.18,0.28,0.397,0.28,0.647c0,0.241-0.097,0.447-0.28,0.625
		c-0.168,0.172-0.379,0.258-0.618,0.258h-5.949c-0.249,0-0.469-0.086-0.642-0.258c-0.172-0.179-0.256-0.384-0.256-0.625V29.787
		c0-0.242,0.084-0.448,0.256-0.626c0.173-0.169,0.393-0.257,0.642-0.257h5.949c0.239,0,0.45,0.087,0.618,0.257
		c0.184,0.178,0.28,0.384,0.28,0.626c0,0.251-0.097,0.466-0.28,0.646c-0.168,0.182-0.379,0.271-0.618,0.271h-5.05v3.621h3.967
		c0.244,0,0.44,0.089,0.62,0.259c0.16,0.178,0.254,0.382,0.254,0.62c0,0.242-0.094,0.449-0.254,0.622
		c-0.18,0.176-0.376,0.263-0.62,0.263h-3.967v3.618h5.05C129.982,39.707,130.193,39.799,130.361,39.978z"/>
</g>
<path fill="none" stroke="#404041" stroke-width="0.75" stroke-miterlimit="10" d="M72.729,34.799"/>
<g>
	<path fill="none" stroke="#E5CB98" stroke-width="2" stroke-miterlimit="10" d="M79.76,14.489
		c0.886,5.15,3.537,21.826,3.537,21.826c0.811,10.047-8.183,18.264-18.265,18.264c-10.1,0-19.075-8.217-18.268-18.264
		c0,0,2.637-16.676,3.524-21.826H79.76z"/>
	<line fill="none" stroke="#E5CB98" stroke-width="2" stroke-miterlimit="10" x1="49.443" y1="19.972" x2="80.611" y2="19.972"/>
	<path fill="none" stroke="#E5CB98" stroke-width="2" stroke-miterlimit="10" d="M63.264,19.868c2.145,0,14.49-16.267,14.49-16.267"
		/>
	<line fill="none" stroke="#E5CB98" stroke-width="2" stroke-miterlimit="10" x1="56.296" y1="19.639" x2="56.296" y2="52.695"/>
	<line fill="none" stroke="#E5CB98" stroke-width="2" stroke-miterlimit="10" x1="51.299" y1="19.886" x2="51.299" y2="48.695"/>
	<path fill="none" stroke="#E5CB98" stroke-width="2" stroke-miterlimit="10" d="M58.39,51.13"/>
	<polyline fill="none" stroke="#E5CB98" stroke-width="2" stroke-miterlimit="10" points="61.628,54.579 61.628,28.389 
		61.628,20.178 	"/>
	<polyline fill="none" stroke="#E5CB98" stroke-width="2" stroke-miterlimit="10" points="62.019,43.983 64.794,41.427 
		72.328,34.464 81.352,26.123 	"/>
	<line fill="none" stroke="#E5CB98" stroke-width="2" stroke-miterlimit="10" x1="61.437" y1="37.373" x2="80.912" y2="19.519"/>
	<line fill="none" stroke="#E5CB98" stroke-width="2" stroke-miterlimit="10" x1="61.628" y1="30.215" x2="72.416" y2="19.886"/>
	<line fill="none" stroke="#E5CB98" stroke-width="2" stroke-miterlimit="10" x1="74.551" y1="32.79" x2="83.226" y2="40.816"/>
	<line fill="none" stroke="#E5CB98" stroke-width="2" stroke-miterlimit="10" x1="71.528" y1="53.417" x2="62.057" y2="43.516"/>
	<line fill="none" stroke="#E5CB98" stroke-width="2" stroke-miterlimit="10" x1="76.472" y1="50.669" x2="66.149" y2="39.888"/>
	<line fill="none" stroke="#E5CB98" stroke-width="2" stroke-miterlimit="10" x1="80.885" y1="47.12" x2="70.555" y2="36.339"/>
</g>
<g>
	<path fill="#E5CB98" d="M16.129-2.862l0.366,0.572L15.89-1.901l-1.196,0.765L14.341-0.91l-0.125,0.079l-3.836,2.453l-0.366-0.573
		c-0.204-0.32-0.123-0.61,0.247-0.873c0.032-0.023,0.153-0.104,0.362-0.241c0.209-0.138,0.49-0.322,0.839-0.55
		c0.35-0.23,0.666-0.44,0.949-0.628L-0.682-4.269c-0.177-0.039-0.331-0.068-0.464-0.09C-1.281-4.38-1.421-4.382-1.564-4.364
		c-0.145,0.018-0.301,0.065-0.47,0.138c-0.17,0.075-0.37,0.186-0.6,0.333l-1.31,0.838l5.549,8.676
		c0.351-0.205,0.673-0.393,0.963-0.565c0.291-0.174,0.507-0.304,0.651-0.39c0.142-0.084,0.235-0.141,0.277-0.165
		c0.394-0.225,0.692-0.177,0.897,0.143L4.76,5.218L2.338,6.768l-1.47,0.938l-2.425,1.552l-0.368-0.573
		c-0.204-0.32-0.123-0.611,0.247-0.873c0.04-0.028,0.13-0.089,0.268-0.184c0.138-0.094,0.347-0.237,0.625-0.429
		c0.28-0.191,0.586-0.404,0.921-0.639L-11.45-11.557c-0.352,0.206-0.674,0.396-0.966,0.568c-0.291,0.175-0.509,0.305-0.651,0.39
		c-0.143,0.086-0.235,0.143-0.279,0.167c-0.393,0.224-0.691,0.177-0.896-0.146l-0.367-0.57l2.426-1.553l1.465-0.938l2.427-1.552
		l0.366,0.575c0.204,0.318,0.123,0.61-0.247,0.873c-0.04,0.027-0.128,0.089-0.267,0.182c-0.138,0.095-0.347,0.237-0.625,0.429
		c-0.278,0.191-0.584,0.404-0.918,0.636l5.301,8.287l1.21-0.773c0.182-0.117,0.336-0.225,0.462-0.326
		c0.125-0.099,0.229-0.206,0.311-0.32c0.084-0.115,0.152-0.236,0.204-0.363s0.098-0.279,0.136-0.453l2.586-12.593
		c-0.278,0.171-0.587,0.363-0.927,0.576c-0.34,0.21-0.61,0.379-0.81,0.503s-0.316,0.197-0.351,0.217
		c-0.393,0.225-0.692,0.177-0.896-0.145l-0.368-0.573l3.698-2.364l0.262-0.17l2.017-1.289l0.368,0.573
		c0.204,0.32,0.123,0.611-0.247,0.874c-0.04,0.029-0.095,0.068-0.169,0.118c-0.074,0.051-0.194,0.133-0.359,0.249
		c-0.166,0.114-0.34,0.236-0.525,0.362L-0.756-7.082c-0.06,0.309-0.126,0.56-0.197,0.755c-0.072,0.194-0.173,0.381-0.302,0.559
		c0.238-0.071,0.475-0.097,0.71-0.078s0.496,0.071,0.781,0.159l13.861,3.353c0.202-0.119,0.391-0.231,0.568-0.335
		c0.177-0.106,0.306-0.181,0.385-0.229c0.081-0.047,0.141-0.083,0.183-0.108C15.625-3.23,15.924-3.182,16.129-2.862z"/>
	<path fill="#E5CB98" d="M47.832-12.222l0.19,0.765l-1.084,0.269l-0.674,0.167l-0.636,0.159l-0.22,0.053l-3.111,0.773l-0.189-0.763
		c-0.105-0.427,0.092-0.714,0.592-0.865c0.045-0.015,0.112-0.036,0.204-0.067c0.09-0.029,0.244-0.079,0.459-0.149
		c0.215-0.068,0.492-0.154,0.828-0.256l-3.75-5.152l-0.274-0.383l-11.186,2.778l-0.068,0.469l-0.892,6.303
		c0.346-0.068,0.631-0.121,0.854-0.162c0.224-0.04,0.381-0.066,0.477-0.083c0.094-0.015,0.165-0.027,0.209-0.036
		c0.514-0.102,0.824,0.062,0.929,0.487l0.189,0.765l-3.111,0.773l-0.236,0.058L26.71-6.167l-0.673,0.169l-1.085,0.268l-0.188-0.764
		c-0.099-0.395,0.059-0.67,0.474-0.823l1.045-0.375l3.531-24.163l1.692-0.42l14.421,19.706l1.1-0.159
		C47.465-12.784,47.734-12.615,47.832-12.222z M29.178-16.28l10.172-2.526l-7.46-10.287c-0.123-0.167-0.253-0.362-0.391-0.582
		c-0.141-0.225-0.281-0.457-0.419-0.696c-0.012,0.283-0.026,0.552-0.044,0.812c-0.019,0.255-0.042,0.492-0.07,0.713L29.178-16.28z"
		/>
	<path fill="#E5CB98" d="M76.466-36.457l0.011,5.019l-0.833,0.001c-0.463,0-0.709-0.275-0.737-0.826
		c-0.004-0.06-0.048-0.963-0.14-2.701l-7.042,0.011l0.036,21.344c0.407,0.015,0.779,0.028,1.119,0.039
		c0.338,0.01,0.591,0.017,0.76,0.022c0.166,0.004,0.273,0.008,0.324,0.011c0.452,0.021,0.677,0.222,0.679,0.602v0.68l-2.88,0.005
		l-1.742,0.003l-2.88,0.005l-0.002-0.682c0-0.38,0.225-0.582,0.677-0.604c0.05-0.003,0.158-0.006,0.325-0.011
		s0.42-0.013,0.758-0.025c0.339-0.012,0.711-0.026,1.117-0.043l-0.034-21.344l-7.078,0.013c-0.075,1.565-0.118,2.466-0.129,2.703
		c-0.027,0.551-0.272,0.828-0.736,0.828l-0.831,0.002L57.2-36.422h0.23l0.494-0.002l17.817-0.03h0.477L76.466-36.457z"/>
	<path fill="#E5CB98" d="M104.417-30.397c-0.165-0.035-0.412-0.087-0.744-0.157c-0.33-0.068-0.696-0.145-1.095-0.226L97.487-9.927
		c0.391,0.114,0.75,0.214,1.076,0.306c0.326,0.09,0.57,0.159,0.733,0.202c0.16,0.044,0.263,0.074,0.311,0.088
		c0.435,0.128,0.607,0.378,0.517,0.746l-0.162,0.662l-2.796-0.683l-1.711-0.418l-2.797-0.682l0.159-0.661
		c0.091-0.369,0.357-0.512,0.803-0.428c0.048,0.01,0.155,0.033,0.318,0.068c0.161,0.034,0.409,0.087,0.743,0.156
		c0.331,0.072,0.697,0.147,1.095,0.227l5.091-20.853c-0.392-0.114-0.75-0.214-1.078-0.305c-0.324-0.091-0.569-0.159-0.729-0.205
		c-0.163-0.043-0.266-0.073-0.312-0.086c-0.436-0.129-0.607-0.377-0.516-0.747l0.162-0.661l2.795,0.682l1.71,0.417l2.798,0.684
		l-0.16,0.663c-0.09,0.367-0.356,0.51-0.803,0.422C104.686-30.338,104.579-30.361,104.417-30.397z"/>
	<path fill="#E5CB98" d="M144.494-12.905l-0.789,1.222l-1.929,2.987l-0.699-0.45c-0.389-0.252-0.444-0.617-0.168-1.096
		c0.16-0.274,0.614-1.062,1.363-2.367l-9.267-5.979l-5.304,8.215l8.086,5.218l-0.77,1.192l-8.086-5.217l-5.468,8.474l9.269,5.98
		c0.171-0.237,0.405-0.561,0.697-0.969c0.291-0.409,0.505-0.706,0.64-0.892c0.134-0.184,0.22-0.303,0.257-0.358
		c0.321-0.448,0.679-0.547,1.068-0.296l0.696,0.452l-1.928,2.987l-0.785,1.221l-12.183-7.86l-2.421-1.562l0.37-0.571
		c0.206-0.32,0.505-0.366,0.896-0.14c0.044,0.024,0.137,0.081,0.279,0.167c0.144,0.086,0.359,0.218,0.65,0.392
		c0.29,0.176,0.612,0.365,0.962,0.574l11.642-18.042c-0.332-0.235-0.639-0.448-0.917-0.642c-0.28-0.192-0.488-0.337-0.625-0.43
		c-0.139-0.094-0.226-0.155-0.267-0.184c-0.368-0.266-0.449-0.558-0.245-0.876l0.371-0.571l2.422,1.56L144.494-12.905z"/>
</g>
<g>
	<path fill="#E5CB98" d="M9.358,41.509c-0.235,0-0.454-0.086-0.622-0.258c-0.17-0.179-0.26-0.384-0.26-0.625V29.787
		c0-0.242,0.09-0.448,0.26-0.626c0.168-0.169,0.387-0.257,0.622-0.257c0.237,0,0.448,0.087,0.633,0.257
		c0.177,0.178,0.262,0.384,0.262,0.626v10.839c0,0.241-0.085,0.447-0.262,0.625C9.806,41.423,9.596,41.509,9.358,41.509z"/>
	<path fill="#E5CB98" d="M22.224,41.509c-0.305,0-0.553-0.131-0.734-0.394l-5.932-8.484v7.994c0,0.241-0.09,0.447-0.272,0.625
		c-0.181,0.172-0.396,0.258-0.653,0.258c-0.223,0-0.438-0.086-0.62-0.258c-0.172-0.179-0.253-0.384-0.253-0.625V29.787
		c0-0.231,0.081-0.436,0.248-0.617c0.167-0.179,0.373-0.266,0.645-0.266c0.314,0,0.552,0.133,0.743,0.396l5.928,8.48v-7.993
		c0-0.242,0.081-0.448,0.272-0.626c0.167-0.169,0.391-0.257,0.629-0.257s0.442,0.087,0.63,0.257c0.18,0.178,0.266,0.384,0.266,0.626
		v10.839c0,0.241-0.086,0.447-0.266,0.625C22.667,41.423,22.462,41.509,22.224,41.509z"/>
</g>
</svg>
