<?xml version="1.0" encoding="utf-8"?>
<!-- Generator: Adobe Illustrator 16.0.0, SVG Export Plug-In . SVG Version: 6.00 Build 0)  -->
<!DOCTYPE svg PUBLIC "-//W3C//DTD SVG 1.1//EN" "http://www.w3.org/Graphics/SVG/1.1/DTD/svg11.dtd">
<svg version="1.1" id="Layer_1" xmlns="http://www.w3.org/2000/svg" xmlns:xlink="http://www.w3.org/1999/xlink" x="0px" y="0px"
	 width="800px" height="800px" viewBox="0 0 800 800" enable-background="new 0 0 800 800" xml:space="preserve">
<path fill="none" stroke="#D1D3D4" stroke-width="10" stroke-miterlimit="10" d="M1385.793,35.394"/>
<path fill="none" stroke="#D1D3D4" stroke-width="10" stroke-miterlimit="10" d="M1087.452,312.971"/>
<g opacity="0.2">
	<defs>
		<rect id="SVGID_1_" opacity="0.2" width="798.147" height="800"/>
	</defs>
	<clipPath id="SVGID_2_">
		<use xlink:href="#SVGID_1_"  overflow="visible"/>
	</clipPath>
	<polyline clip-path="url(#SVGID_2_)" fill="none" stroke="#D1D3D4" stroke-width="10" stroke-miterlimit="10" points="
		386.507,-32.235 325.77,33.733 160.152,212.962 -38.244,427.628 	"/>
	
		<line clip-path="url(#SVGID_2_)" fill="none" stroke="#D1D3D4" stroke-width="10" stroke-miterlimit="10" x1="145.692" y1="-27.567" x2="-77.291" y2="215.716"/>
	<polyline clip-path="url(#SVGID_2_)" fill="none" stroke="#D1D3D4" stroke-width="10" stroke-miterlimit="10" points="
		65.825,-25.418 -106.798,154.897 -164.426,215.093 	"/>
	<polyline clip-path="url(#SVGID_2_)" fill="none" stroke="#D1D3D4" stroke-width="10" stroke-miterlimit="10" points="
		205.434,-7.423 174.182,26.521 88.965,118.741 -13.118,229.195 	"/>
	<polyline clip-path="url(#SVGID_2_)" fill="none" stroke="#D1D3D4" stroke-width="10" stroke-miterlimit="10" points="
		316.201,-40.605 259.935,20.509 106.505,186.548 -77.291,385.415 	"/>
	<polyline clip-path="url(#SVGID_2_)" fill="none" stroke="#D1D3D4" stroke-width="10" stroke-miterlimit="10" points="
		499.086,-69.162 422.251,14.291 212.736,241.024 -38.244,512.586 	"/>
	<polyline clip-path="url(#SVGID_2_)" fill="none" stroke="#D1D3D4" stroke-width="10" stroke-miterlimit="10" points="
		558.148,-48.386 470.328,46.997 230.865,306.142 -55.994,616.523 	"/>
	<polyline clip-path="url(#SVGID_2_)" fill="none" stroke="#D1D3D4" stroke-width="10" stroke-miterlimit="10" points="
		629.433,-40.605 534.654,62.337 276.21,342.025 -33.388,677.007 	"/>
	<polyline clip-path="url(#SVGID_2_)" fill="none" stroke="#D1D3D4" stroke-width="10" stroke-miterlimit="10" points="
		677.231,-7.422 574.543,104.108 294.539,407.127 -40.887,770.056 	"/>
	<polyline clip-path="url(#SVGID_2_)" fill="none" stroke="#D1D3D4" stroke-width="10" stroke-miterlimit="10" points="
		786.133,-40.606 671.843,83.528 360.202,420.782 -13.118,824.714 	"/>
	<polyline clip-path="url(#SVGID_2_)" fill="none" stroke="#D1D3D4" stroke-width="10" stroke-miterlimit="10" points="
		838.771,-12.637 721.353,114.897 401.169,461.397 17.61,876.401 	"/>
	<polyline clip-path="url(#SVGID_2_)" fill="none" stroke="#D1D3D4" stroke-width="10" stroke-miterlimit="10" points="
		886.064,21.397 773.051,144.145 464.886,477.638 95.725,877.066 	"/>
	<polyline clip-path="url(#SVGID_2_)" fill="none" stroke="#D1D3D4" stroke-width="10" stroke-miterlimit="10" points="
		880.065,112.848 785.024,216.079 525.854,496.55 215.388,832.471 	"/>
	<polyline clip-path="url(#SVGID_2_)" fill="none" stroke="#D1D3D4" stroke-width="10" stroke-miterlimit="10" points="
		840.186,240.954 763.765,323.957 555.381,549.468 305.753,819.564 	"/>
	<polyline clip-path="url(#SVGID_2_)" fill="none" stroke="#D1D3D4" stroke-width="10" stroke-miterlimit="10" points="
		864.68,299.155 789.572,380.731 584.771,602.364 339.438,867.815 	"/>
	<polyline clip-path="url(#SVGID_2_)" fill="none" stroke="#D1D3D4" stroke-width="10" stroke-miterlimit="10" points="
		821.497,430.868 755.847,502.172 576.834,695.897 362.39,927.923 	"/>
	<polyline clip-path="url(#SVGID_2_)" fill="none" stroke="#D1D3D4" stroke-width="10" stroke-miterlimit="10" points="
		798.147,540.005 756.997,584.699 644.789,706.13 510.371,851.568 	"/>
	<polyline clip-path="url(#SVGID_2_)" fill="none" stroke="#D1D3D4" stroke-width="10" stroke-miterlimit="10" points="
		821.099,600.113 789.849,634.057 704.632,726.277 602.548,836.73 	"/>
	<polyline clip-path="url(#SVGID_2_)" fill="none" stroke="#D1D3D4" stroke-width="10" stroke-miterlimit="10" points="
		838.772,665.91 807.521,699.854 722.304,792.074 620.221,902.528 	"/>
	<polyline clip-path="url(#SVGID_2_)" fill="none" stroke="#D1D3D4" stroke-width="10" stroke-miterlimit="10" points="
		872.456,714.162 841.204,748.105 755.987,840.326 653.905,950.779 	"/>
</g>
</svg>
