<?xml version="1.0" encoding="utf-8"?>
<!-- Generator: Adobe Illustrator 18.1.1, SVG Export Plug-In . SVG Version: 6.00 Build 0)  -->
<svg version="1.1" id="Layer_1" xmlns="http://www.w3.org/2000/svg" xmlns:xlink="http://www.w3.org/1999/xlink" x="0px" y="0px"
	 viewBox="-12 -0.7 74.2 94.3" enable-background="new -12 -0.7 74.2 94.3" xml:space="preserve">
<g>
	<path fill="none" stroke="#E5CB98" stroke-width="4" stroke-miterlimit="10" d="M52.6,20.4c1.6,9.1,6.2,38.5,6.2,38.5
		c1.4,17.7-14.4,32.2-32.2,32.2C8.8,91.1-7,76.6-5.6,58.9c0,0,4.7-29.4,6.2-38.5C0.6,20.4,52.6,20.4,52.6,20.4z"/>
	<line fill="none" stroke="#E5CB98" stroke-width="4" stroke-miterlimit="10" x1="-0.9" y1="30" x2="54.1" y2="30"/>
	<path fill="none" stroke="#E5CB98" stroke-width="4" stroke-miterlimit="10" d="M23.5,29.9c3.8,0,25.6-28.7,25.6-28.7"/>
	<line fill="none" stroke="#E5CB98" stroke-width="4" stroke-miterlimit="10" x1="11.2" y1="29.5" x2="11.2" y2="87.7"/>
	<line fill="none" stroke="#E5CB98" stroke-width="4" stroke-miterlimit="10" x1="2.4" y1="29.9" x2="2.4" y2="80.7"/>
	<path fill="none" stroke="#E5CB98" stroke-width="4" stroke-miterlimit="10" d="M14.9,85"/>
	<polyline fill="none" stroke="#E5CB98" stroke-width="4" stroke-miterlimit="10" points="20.6,91.1 20.6,44.9 20.6,30.4 	"/>
	<polyline fill="none" stroke="#E5CB98" stroke-width="4" stroke-miterlimit="10" points="21.3,72.4 26.2,67.9 39.5,55.6 55.4,40.9 
			"/>
	<line fill="none" stroke="#E5CB98" stroke-width="4" stroke-miterlimit="10" x1="20.3" y1="60.7" x2="54.6" y2="29.2"/>
	<line fill="none" stroke="#E5CB98" stroke-width="4" stroke-miterlimit="10" x1="20.6" y1="48.1" x2="39.6" y2="29.9"/>
	<line fill="none" stroke="#E5CB98" stroke-width="4" stroke-miterlimit="10" x1="43.4" y1="52.6" x2="58.7" y2="66.8"/>
	<line fill="none" stroke="#E5CB98" stroke-width="4" stroke-miterlimit="10" x1="38.1" y1="89" x2="21.4" y2="71.6"/>
	<line fill="none" stroke="#E5CB98" stroke-width="4" stroke-miterlimit="10" x1="46.8" y1="84.2" x2="28.6" y2="65.2"/>
	<line fill="none" stroke="#E5CB98" stroke-width="4" stroke-miterlimit="10" x1="54.6" y1="77.9" x2="36.4" y2="58.9"/>
</g>
</svg>
