<?xml version="1.0" encoding="utf-8"?>
<!-- Generator: Adobe Illustrator 18.1.1, SVG Export Plug-In . SVG Version: 6.00 Build 0)  -->
<svg version="1.1" id="Layer_1" xmlns="http://www.w3.org/2000/svg" xmlns:xlink="http://www.w3.org/1999/xlink" x="0px" y="0px"
	 viewBox="-12 -0.7 81.8 94.3" enable-background="new -12 -0.7 81.8 94.3" xml:space="preserve">
<g>
	<path fill="none" stroke="#E5CB99" stroke-width="5" stroke-miterlimit="10" d="M-8.1,45.5c0,20.3,16.6,36.9,36.9,36.9
		s36.9-16.6,36.9-36.9C65.6,45.5-8.1,45.5-8.1,45.5z"/>
	<path fill="none" stroke="#E5CB99" stroke-width="5" stroke-miterlimit="10" d="M-8.1,45.5C-8.1,37.7-1.7,31,6.4,31
		c7.8,0,14.5,6.4,14.5,14.5"/>
	<path fill="none" stroke="#E5CB99" stroke-width="5" stroke-miterlimit="10" d="M11.6,32.2C13.1,24,20.3,17.6,29,17.6
		c8.4,0,15.7,6.1,17.1,13.9"/>
	<path fill="none" stroke="#E5CB99" stroke-width="5" stroke-miterlimit="10" d="M36.9,45.5c0-7.8,6.4-14.5,14.5-14.5
		c7.8,0,14.5,6.4,14.5,14.5"/>
	
		<line fill="none" stroke="#E5CB99" stroke-width="5" stroke-linecap="round" stroke-miterlimit="10" x1="46.5" y1="31.3" x2="65.6" y2="13"/>
</g>
</svg>
