<?xml version="1.0" encoding="utf-8"?>
<!-- Generator: Adobe Illustrator 18.1.1, SVG Export Plug-In . SVG Version: 6.00 Build 0)  -->
<svg version="1.1" id="Layer_1" xmlns="http://www.w3.org/2000/svg" xmlns:xlink="http://www.w3.org/1999/xlink" x="0px" y="0px"
	 viewBox="0 0 90 90" enable-background="new 0 0 90 90" xml:space="preserve">
<g>
	<path fill="#E5CB98" d="M1,47.6c0-14.4,11-24.3,24.5-24.3c10.9,0,18,5.7,18,11.2c0,3.4-2.2,5.7-5.1,5.7c-3.2,0-5.3-2-5.3-5.1
		c0-0.9,0.2-1.8,0.5-2.4c-1.4-1.1-4.1-2.1-8.3-2.1c-9.1,0-16,6.7-16,16.8c0,10.2,7.4,16.8,15.3,16.8c4.9,0,8.3-1.1,11.2-3v-8H24.3
		v-6.8h19.5v24.2h-7.6v-3.4c-3.3,2.5-7.4,4.3-12.7,4.3C12,71.6,1,62.6,1,47.6z"/>
	<path fill="#E5CB98" d="M54.6,63.7H60V31.3h-5.3v-7.2h34.3v13.3h-7.6v-6.2H67.9v13.3h13.8v6.9H67.9v12.2h6.2v7.2H54.6V63.7z"/>
</g>
</svg>
