<?xml version="1.0" encoding="utf-8"?>
<!-- Generator: Adobe Illustrator 16.0.0, SVG Export Plug-In . SVG Version: 6.00 Build 0)  -->
<!DOCTYPE svg PUBLIC "-//W3C//DTD SVG 1.1//EN" "http://www.w3.org/Graphics/SVG/1.1/DTD/svg11.dtd">
<svg version="1.1" id="Layer_1" xmlns="http://www.w3.org/2000/svg" xmlns:xlink="http://www.w3.org/1999/xlink" x="0px" y="0px"
	 width="25.583px" height="34.584px" viewBox="0 0 25.583 34.584" enable-background="new 0 0 25.583 34.584" xml:space="preserve">
<path fill="none" stroke="#E5CB98" stroke-width="2" stroke-miterlimit="10" d="M22.349,7.846
	c0.571,3.313,2.276,14.046,2.276,14.046c0.521,6.464-5.266,11.752-11.754,11.752c-6.5,0-12.275-5.288-11.755-11.752
	c0,0,1.697-10.732,2.267-14.046H22.349z"/>
<line fill="none" stroke="#E5CB98" stroke-width="2" stroke-miterlimit="10" x1="2.838" y1="11.374" x2="22.898" y2="11.374"/>
<path fill="none" stroke="#E5CB98" stroke-width="2" stroke-miterlimit="10" d="M11.733,11.307c1.38,0,9.327-10.469,9.327-10.469"/>
<line fill="none" stroke="#E5CB98" stroke-miterlimit="10" x1="7.248" y1="11.159" x2="7.248" y2="32.43"/>
<line fill="none" stroke="#E5CB98" stroke-miterlimit="10" x1="4.033" y1="11.318" x2="4.033" y2="29.857"/>
<path fill="none" stroke="#E5CB98" stroke-miterlimit="10" d="M8.597,31.426"/>
<polyline fill="none" stroke="#E5CB98" stroke-miterlimit="10" points="10.681,33.644 10.681,16.79 10.681,11.505 "/>
<polyline fill="none" stroke="#E5CB98" stroke-miterlimit="10" points="10.933,26.823 12.717,25.18 17.566,20.699 23.374,15.332 "/>
<line fill="none" stroke="#E5CB98" stroke-miterlimit="10" x1="10.557" y1="22.57" x2="23.092" y2="11.082"/>
<line fill="none" stroke="#E5CB98" stroke-miterlimit="10" x1="10.681" y1="17.964" x2="17.623" y2="11.318"/>
<line fill="none" stroke="#E5CB98" stroke-miterlimit="10" x1="19" y1="19.622" x2="24.579" y2="24.786"/>
<line fill="none" stroke="#E5CB98" stroke-miterlimit="10" x1="17.052" y1="32.896" x2="10.957" y2="26.524"/>
<line fill="none" stroke="#E5CB98" stroke-miterlimit="10" x1="20.236" y1="31.129" x2="13.589" y2="24.189"/>
<line fill="none" stroke="#E5CB98" stroke-miterlimit="10" x1="23.073" y1="28.845" x2="16.426" y2="21.907"/>
</svg>
