<?xml version="1.0" encoding="utf-8"?>
<!-- Generator: Adobe Illustrator 16.0.0, SVG Export Plug-In . SVG Version: 6.00 Build 0)  -->
<!DOCTYPE svg PUBLIC "-//W3C//DTD SVG 1.1//EN" "http://www.w3.org/Graphics/SVG/1.1/DTD/svg11.dtd">
<svg version="1.1" id="Layer_1" xmlns="http://www.w3.org/2000/svg" xmlns:xlink="http://www.w3.org/1999/xlink" x="0px" y="0px"
	 width="63.5px" height="85px" viewBox="0 0 63.5 85" enable-background="new 0 0 63.5 85" xml:space="preserve">
<g>
	<path fill="none" stroke="#E5CB98" stroke-width="3.5" stroke-miterlimit="10" d="M55.472,18.724
		c1.4,8.142,5.595,34.516,5.595,34.516c1.28,15.885-12.941,28.88-28.883,28.88c-15.974,0-30.165-12.995-28.892-28.88
		c0,0,4.173-26.374,5.575-34.516H55.472z"/>
	<line fill="none" stroke="#E5CB98" stroke-width="3.5" stroke-miterlimit="10" x1="7.53" y1="27.394" x2="56.821" y2="27.394"/>
	<path fill="none" stroke="#E5CB98" stroke-width="3.5" stroke-miterlimit="10" d="M29.386,27.229
		c3.394,0,22.914-25.725,22.914-25.725"/>
	<line fill="none" stroke="#E5CB98" stroke-width="3.5" stroke-miterlimit="10" x1="18.367" y1="26.865" x2="18.367" y2="79.138"/>
	<line fill="none" stroke="#E5CB98" stroke-width="3.5" stroke-miterlimit="10" x1="10.465" y1="27.257" x2="10.465" y2="72.812"/>
	<path fill="none" stroke="#E5CB98" stroke-width="3.5" stroke-miterlimit="10" d="M21.678,76.667"/>
	<polyline fill="none" stroke="#E5CB98" stroke-width="3.5" stroke-miterlimit="10" points="26.799,82.119 26.799,40.702 
		26.799,27.718 	"/>
	<polyline fill="none" stroke="#E5CB98" stroke-width="3.5" stroke-miterlimit="10" points="27.417,65.36 31.805,61.319 
		43.72,50.311 57.989,37.122 	"/>
	<line fill="none" stroke="#E5CB98" stroke-width="3.5" stroke-miterlimit="10" x1="26.496" y1="54.91" x2="57.295" y2="26.677"/>
	<line fill="none" stroke="#E5CB98" stroke-width="3.5" stroke-miterlimit="10" x1="26.799" y1="43.59" x2="43.859" y2="27.257"/>
	<line fill="none" stroke="#E5CB98" stroke-width="3.5" stroke-miterlimit="10" x1="47.237" y1="47.662" x2="60.951" y2="60.354"/>
	<line fill="none" stroke="#E5CB98" stroke-width="3.5" stroke-miterlimit="10" x1="42.454" y1="80.281" x2="27.48" y2="64.623"/>
	<line fill="none" stroke="#E5CB98" stroke-width="3.5" stroke-miterlimit="10" x1="50.276" y1="75.938" x2="33.948" y2="58.886"/>
	<line fill="none" stroke="#E5CB98" stroke-width="3.5" stroke-miterlimit="10" x1="57.251" y1="70.324" x2="40.919" y2="53.273"/>
</g>
</svg>
